<?xml version="1.0" encoding="utf-8"?>
<!-- Generator: Adobe Illustrator 16.0.3, SVG Export Plug-In . SVG Version: 6.00 Build 0)  -->
<!DOCTYPE svg PUBLIC "-//W3C//DTD SVG 1.1//EN" "http://www.w3.org/Graphics/SVG/1.1/DTD/svg11.dtd">
<svg version="1.1" id="Layer_1" xmlns="http://www.w3.org/2000/svg" xmlns:xlink="http://www.w3.org/1999/xlink" x="0px" y="0px"
	 width="130.642px" height="25.716px" viewBox="0 0 130.642 25.716" enable-background="new 0 0 130.642 25.716"
	 xml:space="preserve">
<g>
	<path d="M20.738,11.696v8.49h-4.147v-8.13c0-1.382-0.663-2.267-1.989-2.267c-1.384,0-2.157,0.968-2.157,2.599v7.798H8.297v-8.13
		c0-1.382-0.665-2.267-1.991-2.267c-1.382,0-2.157,0.968-2.157,2.599v7.798H0V6.36h4.148v1.272c0.635-0.941,1.853-1.659,3.704-1.659
		c1.634,0,2.851,0.664,3.624,1.825c0.773-1.106,2.045-1.825,4.009-1.825C18.665,5.973,20.738,8.24,20.738,11.696z"/>
	<path d="M36.665,6.36v13.826h-4.147v-1.3c-0.747,1.022-2.13,1.687-3.955,1.687c-2.792,0-5.171-1.991-5.171-5.724V6.36h4.148v7.881
		c0,1.713,1.078,2.516,2.406,2.516c1.521,0,2.571-0.885,2.571-2.849V6.36H36.665z"/>
	<path d="M48,6.083v4.701c-1.713-0.276-4.147,0.415-4.147,3.152v6.25h-4.146V6.36h4.146v2.461C44.406,6.968,46.259,6.083,48,6.083z"
		/>
	<path d="M63.705,6.36v13.826h-4.148v-1.3c-0.91,1.051-2.266,1.687-4.118,1.687c-3.622,0-6.61-3.181-6.61-7.3
		c0-4.12,2.988-7.3,6.61-7.3c1.853,0,3.208,0.636,4.118,1.687v-1.3H63.705z M59.557,13.273c0-2.074-1.382-3.374-3.289-3.374
		c-1.908,0-3.291,1.3-3.291,3.374c0,2.074,1.383,3.373,3.291,3.373C58.175,16.646,59.557,15.347,59.557,13.273z"/>
	<path d="M72,10.341v4.895c0,1.189,1.023,1.301,2.85,1.189v3.761c-5.422,0.553-6.996-1.079-6.996-4.95v-4.895h-2.212V6.36h2.212
		V3.733L72,2.489V6.36h2.85v3.981H72z"/>
	<path d="M76.228,13.273c0-4.12,3.264-7.3,7.328-7.3s7.328,3.18,7.328,7.3c0,4.119-3.264,7.3-7.328,7.3S76.228,17.392,76.228,13.273
		z M86.736,13.273c0-1.963-1.381-3.263-3.18-3.263c-1.797,0-3.18,1.3-3.18,3.263c0,1.963,1.383,3.264,3.18,3.264
		C85.355,16.537,86.736,15.236,86.736,13.273z"/>
	<path d="M101.529,6.083v4.701c-1.715-0.276-4.148,0.415-4.148,3.152v6.25h-4.148V6.36h4.148v2.461
		C97.935,6.968,99.787,6.083,101.529,6.083z"/>
	<path fill="#FCC20E" d="M101.251,17.945c0-1.438,1.189-2.626,2.627-2.626c1.439,0,2.627,1.188,2.627,2.626
		c0,1.439-1.188,2.628-2.627,2.628C102.441,20.573,101.251,19.384,101.251,17.945z"/>
	<path fill="#FCC20E" d="M124.146,13.273c0,4.119-2.986,7.3-6.607,7.3c-1.855,0-3.209-0.636-4.121-1.687v6.83h-4.148V6.36h4.148v1.3
		c0.912-1.051,2.266-1.687,4.121-1.687C121.16,5.973,124.146,9.153,124.146,13.273z M120,13.273c0-2.074-1.383-3.374-3.291-3.374
		s-3.291,1.3-3.291,3.374c0,2.074,1.383,3.373,3.291,3.373S120,15.347,120,13.273z"/>
	<path fill="#FCC20E" d="M126.494,0h4.148v20.186h-4.148V0z"/>
</g>
</svg>
